<?xml version="1.0" encoding="utf-8" ?>
<svg xmlns="http://www.w3.org/2000/svg" xmlns:xlink="http://www.w3.org/1999/xlink" width="1024" height="1024">
	<defs>
		<linearGradient id="gradient_0" gradientUnits="userSpaceOnUse" x1="259.16266" y1="436.04276" x2="252.80264" y2="71.21656">
			<stop offset="0" stop-color="#1394FF"/>
			<stop offset="1" stop-color="#76D3FB"/>
		</linearGradient>
	</defs>
	<path fill="url(#gradient_0)" transform="scale(2 2)" d="M151.078 72.5677L339.775 72.56C351.01 72.558 362.979 71.8925 374.032 74.1698C411.653 81.9204 436.805 113.943 438.058 152.024C438.564 167.392 438.145 182.887 438.145 198.269L438.151 333.917C438.155 346.2 438.965 359.106 436.571 371.195C429.105 408.895 399.557 433.685 361.64 434.902L167.632 434.912C158.109 434.912 147.905 435.558 138.52 433.779C104.518 427.332 76.6325 397.364 74.3384 362.539C73.929 356.324 74.0371 350.065 74.0422 343.84L74.0455 179.1C74.033 147.274 71.9187 124.198 94.7123 98.5023C109.704 81.6015 128.854 73.8873 151.078 72.5677Z"/>
	<defs>
		<linearGradient id="gradient_1" gradientUnits="userSpaceOnUse" x1="316.88596" y1="407.94016" x2="356.8941" y2="263.90155">
			<stop offset="0" stop-color="#306EFB"/>
			<stop offset="1" stop-color="#3393FF"/>
		</linearGradient>
	</defs>
	<path fill="url(#gradient_1)" transform="scale(2 2)" d="M342.404 268.362C357.814 268.623 375.118 265.97 388.991 273.928C400.595 280.584 408.086 291.958 410.83 305.017C412.945 315.085 411.907 345.299 411.622 356.966C411.059 380.055 397.054 397.639 374.558 402.653C365.871 404.589 351.629 403.802 342.535 403.804C318.54 403.811 292.35 408.715 274.458 389.825C257.804 372.241 262.559 346.269 262.221 323.496C262.103 287.114 277.559 268.429 315.261 268.364L331.443 268.371C334.823 268.382 338.589 268.768 341.926 268.417L342.404 268.362Z"/>
	<path fill="#6AAFFE" transform="scale(2 2)" d="M401.189 321.039L401.1 350.809C400.212 345.527 402.665 338.122 400.837 332.987C397.289 334.617 393.18 332.348 389.595 331.949C384.029 331.329 379.08 331.774 374.05 331.418C373.537 335.759 384.323 351.958 384.369 353.269C378.97 348.004 372.513 330.984 371.212 323.496C373.048 325.879 376.821 324.835 379.499 324.785C386.219 324.66 392.206 326.131 398.067 326.12C401.804 326.113 400.333 323.569 401.189 321.039Z"/>
	<path fill="#6AAFFE" transform="scale(2 2)" d="M273.001 324.75C273.458 326.632 273.859 326.687 275.747 326.329C279.23 325.669 302.896 321.913 304.995 324.75C302.103 336.22 297.468 344.728 288.57 352.688C288.627 351.898 300.193 339.853 302.528 331.103C299.896 329.516 275.863 331.465 273.419 333.138C272.746 333.599 273.395 348.231 273.135 350.234C272.733 341.878 272.69 333.117 273.001 324.75Z"/>
	<path fill="#FEFEFE" transform="scale(2 2)" d="M273.001 324.75C271.5 312.74 274.482 297.932 283.212 289.109C295.701 276.487 312.464 278.863 328.72 278.879L364.134 278.845C390.617 278.89 401.458 296.295 401.189 321.039C400.333 323.569 401.804 326.113 398.067 326.12C392.206 326.131 386.219 324.66 379.499 324.785C376.821 324.835 373.048 325.879 371.212 323.496C372.513 330.984 378.97 348.004 384.369 353.269C384.805 354.428 385.627 355.661 386.218 356.764C381.886 369.711 373.721 361.084 369.056 353.269C360.722 353.281 352.37 353.096 344.04 353.269C349.913 364.1 363.081 366.53 370.712 372.812C374.995 376.338 371.702 383.501 366.417 383.516C360.106 383.535 341.824 369.287 336.809 364.484C330.226 371.921 316.397 382.225 306.694 384.849C302.324 383.883 296.931 379.118 301.265 374.71C307.788 368.076 321.608 365.974 329.792 353.269L306.694 353.269C302.539 355.561 299.754 360.654 295.18 361.957C289.617 363.542 285.143 357.73 288.57 352.688C297.468 344.728 302.103 336.22 304.995 324.75C302.896 321.913 279.23 325.669 275.747 326.329C273.859 326.687 273.458 326.632 273.001 324.75Z"/>
	<path fill="#6AAFFE" transform="scale(2 2)" d="M316.994 327.585C321.928 327.665 326.873 327.591 331.808 327.585L331.808 340.802L327.375 340.802L312.251 340.802C313.71 336.329 315.798 332.173 316.994 327.585Z"/>
	<path fill="#6AAFFE" transform="scale(2 2)" d="M344.04 327.585L359.895 327.585C360.441 331.84 363.392 337.916 363.598 340.802C357.132 341.1 350.522 340.811 344.04 340.802L344.04 327.585Z"/>
	<defs>
		<linearGradient id="gradient_2" gradientUnits="userSpaceOnUse" x1="337.10599" y1="327.52841" x2="335.88586" y2="278.51843">
			<stop offset="0" stop-color="#63AFFC"/>
			<stop offset="1" stop-color="#D7EBFB"/>
		</linearGradient>
	</defs>
	<path fill="url(#gradient_2)" transform="scale(2 2)" d="M273.001 324.75C271.5 312.74 274.482 297.932 283.212 289.109C295.701 276.487 312.464 278.863 328.72 278.879L364.134 278.845C390.617 278.89 401.458 296.295 401.189 321.039C400.333 323.569 401.804 326.113 398.067 326.12C392.206 326.131 386.219 324.66 379.499 324.785C376.821 324.835 373.048 325.879 371.212 323.496C370.898 321.231 370.817 318.489 368.818 316.982C366.309 315.091 348.302 315.892 344.04 315.905C344.038 313.591 344.013 311.274 344.04 308.96L367.15 308.956C372.115 308.952 384.119 310.764 383.766 302.625C383.384 293.82 370.656 296.205 364.866 296.217L311.713 296.199C307.343 296.195 294.203 294.711 291.11 298.367C288.845 301.046 289.338 305.449 292.266 307.484C296.208 310.223 303.799 308.976 308.291 308.974L331.808 308.96C331.913 311.291 331.919 313.575 331.808 315.905L318.565 315.888C308.526 315.876 306.813 314.373 304.995 324.75C302.896 321.913 279.23 325.669 275.747 326.329C273.859 326.687 273.458 326.632 273.001 324.75Z"/>
	<path fill="#FEFEFE" transform="scale(2 2)" d="M262.221 323.496C256.342 324.646 250.719 326.692 244.743 327.509C209.075 332.387 174.577 319.221 146.365 297.832C136.283 290.188 108.281 264.628 106.792 252.222C105.478 241.273 124.212 222.636 131.619 215.217C170.866 175.906 226.406 157.495 278.749 181.14C300.251 190.853 317.01 206.675 333.251 223.39C350.659 241.308 360.171 247.156 342.404 268.362L341.926 268.417C338.589 268.768 334.823 268.382 331.443 268.371L315.261 268.364C277.559 268.429 262.103 287.114 262.221 323.496Z"/>
	<defs>
		<linearGradient id="gradient_3" gradientUnits="userSpaceOnUse" x1="222.50093" y1="199.97134" x2="233.84369" y2="299.29639">
			<stop offset="0" stop-color="#3660FE"/>
			<stop offset="1" stop-color="#2693FF"/>
		</linearGradient>
	</defs>
	<path fill="url(#gradient_3)" transform="scale(2 2)" d="M223.658 199.804C234.813 197.363 249.768 202.92 258.562 209.668C294.326 237.112 279.237 294.617 233.125 299.999C186.028 302.759 160.453 248.443 192.004 214.903C200.082 206.317 211.764 200.201 223.658 199.804Z"/>
	<path fill="#FEFEFE" transform="scale(2 2)" d="M242.143 213.83C266.416 211.507 269.987 247.64 245.063 250.902C223.153 253.722 216.008 217.66 242.143 213.83Z"/>
</svg>
